<svg width="30" height="29" viewBox="0 0 30 29" fill="none" xmlns="http://www.w3.org/2000/svg">
<g id="cart-trolley-ui-4_svgrepo.com">
<g id="layer1">
<path id="circle1799" fill-rule="evenodd" clip-rule="evenodd" d="M8.7242 21.7696C7.26121 21.7696 6.05615 22.9588 6.05615 24.4027C6.05615 25.8465 7.26121 27.0358 8.7242 27.0358C10.1872 27.0358 11.3923 25.8465 11.3923 24.4027C11.3923 22.9588 10.1872 21.7696 8.7242 21.7696ZM8.7242 23.525C9.22591 23.525 9.61355 23.9075 9.61355 24.4027C9.61355 24.8978 9.22591 25.2804 8.7242 25.2804C8.22249 25.2804 7.83485 24.8978 7.83485 24.4027C7.83485 23.9075 8.22249 23.525 8.7242 23.525Z" fill="white"/>
<path id="circle1801" fill-rule="evenodd" clip-rule="evenodd" d="M21.1751 21.7696C19.7121 21.7696 18.5071 22.9588 18.5071 24.4027C18.5071 25.8465 19.7121 27.0358 21.1751 27.0358C22.6381 27.0358 23.8432 25.8465 23.8432 24.4027C23.8432 22.9588 22.6381 21.7696 21.1751 21.7696ZM21.1751 23.525C21.6768 23.525 22.0645 23.9075 22.0645 24.4027C22.0645 24.8978 21.6768 25.2804 21.1751 25.2804C20.6734 25.2804 20.2858 24.8978 20.2858 24.4027C20.2858 23.9075 20.6734 23.525 21.1751 23.525Z" fill="white"/>
<path id="path1803" fill-rule="evenodd" clip-rule="evenodd" d="M3.38813 2.46014C3.15226 2.46014 2.92605 2.55262 2.75926 2.71722C2.59248 2.88182 2.49878 3.10506 2.49878 3.33784C2.49878 3.57063 2.59248 3.79387 2.75926 3.95847C2.92605 4.12307 3.15226 4.21555 3.38813 4.21555H4.43729L6.79441 15.8382C5.84211 16.2421 5.16683 17.1788 5.16683 18.2588C5.16683 19.7023 6.37217 20.8919 7.83488 20.8919H22.9538C23.1897 20.8919 23.4159 20.7994 23.5827 20.6348C23.7495 20.4702 23.8432 20.2469 23.8432 20.0142C23.8432 19.7814 23.7495 19.5581 23.5827 19.3935C23.4159 19.2289 23.1897 19.1365 22.9538 19.1365H7.83488C7.3268 19.1365 6.94553 18.7602 6.94553 18.2588C6.94553 17.7573 7.3268 17.3811 7.83488 17.3811H21.1751C21.1839 17.3795 21.1925 17.3778 21.2012 17.3759H23.8432C24.0551 17.376 24.26 17.3015 24.4211 17.1657C24.5823 17.0299 24.689 16.8419 24.7221 16.6354L25.5576 11.3966C25.5759 11.2827 25.5713 11.1663 25.544 11.0541C25.5167 10.942 25.4673 10.8362 25.3986 10.7429C25.3299 10.6496 25.2432 10.5706 25.1435 10.5104C25.0439 10.4502 24.9331 10.41 24.8177 10.392C24.7021 10.374 24.5841 10.3786 24.4703 10.4056C24.3566 10.4326 24.2494 10.4816 24.1548 10.5496C24.0602 10.6176 23.9802 10.7033 23.9193 10.8019C23.8584 10.9004 23.8178 11.0099 23.7998 11.124L23.0824 15.6205H8.56443L6.9629 7.72635H17.7098C17.9457 7.72635 18.1719 7.63388 18.3387 7.46928C18.5055 7.30468 18.5992 7.08143 18.5992 6.84865C18.5992 6.61587 18.5055 6.39262 18.3387 6.22802C18.1719 6.06342 17.9457 5.97095 17.7098 5.97095H6.60681L6.03881 3.16642C5.99862 2.96735 5.88978 2.78819 5.73079 2.65941C5.5718 2.53064 5.37251 2.46022 5.16683 2.46014H3.38813Z" fill="white"/>
<path id="circle1805" fill-rule="evenodd" clip-rule="evenodd" d="M22.0644 2.46014C19.1279 2.46014 16.7283 4.8283 16.7283 7.72635C16.7283 10.6244 19.1279 12.9926 22.0644 12.9926C25.0009 12.9926 27.4005 10.6244 27.4005 7.72635C27.4005 4.8283 25.0009 2.46014 22.0644 2.46014ZM22.0644 4.21555C24.0396 4.21555 25.6218 5.77699 25.6218 7.72635C25.6218 9.6757 24.0396 11.2372 22.0644 11.2372C20.0891 11.2372 18.507 9.6757 18.507 7.72635C18.507 5.77699 20.0891 4.21555 22.0644 4.21555Z" fill="white"/>
<path id="path1807" fill-rule="evenodd" clip-rule="evenodd" d="M22.0645 5.09323C21.8287 5.09323 21.6025 5.1857 21.4357 5.3503C21.2689 5.5149 21.1752 5.73815 21.1752 5.97093V6.84863H20.2858C20.05 6.84863 19.8238 6.9411 19.657 7.1057C19.4902 7.27031 19.3965 7.49355 19.3965 7.72633C19.3965 7.95911 19.4902 8.18236 19.657 8.34696C19.8238 8.51156 20.05 8.60403 20.2858 8.60403H21.1752V9.48173C21.1752 9.71452 21.2689 9.93776 21.4357 10.1024C21.6025 10.267 21.8287 10.3594 22.0645 10.3594C22.3004 10.3594 22.5266 10.267 22.6934 10.1024C22.8602 9.93776 22.9539 9.71452 22.9539 9.48173V8.60403H23.8432C24.0791 8.60403 24.3053 8.51156 24.4721 8.34696C24.6389 8.18236 24.7326 7.95911 24.7326 7.72633C24.7326 7.49355 24.6389 7.27031 24.4721 7.1057C24.3053 6.9411 24.0791 6.84863 23.8432 6.84863H22.9539V5.97093C22.9539 5.73815 22.8602 5.5149 22.6934 5.3503C22.5266 5.1857 22.3004 5.09323 22.0645 5.09323Z" fill="white"/>
</g>
</g>
</svg>
