<svg width="60" height="60" viewBox="0 0 60 60" fill="none" xmlns="http://www.w3.org/2000/svg">
<g id="chat-ui-web_svgrepo.com">
<g id="layer1">
<path id="path453479" fill-rule="evenodd" clip-rule="evenodd" d="M27.832 35.2794C27.3399 35.2794 26.868 35.4748 26.52 35.8228C26.1721 36.1708 25.9766 36.6427 25.9766 37.1348C25.9766 37.6269 26.1721 38.0988 26.52 38.4468C26.868 38.7948 27.3399 38.9903 27.832 38.9903H46.3867C46.8788 38.9903 47.3507 38.7948 47.6987 38.4468C48.0467 38.0988 48.2422 37.6269 48.2422 37.1348C48.2422 36.6427 48.0467 36.1708 47.6987 35.8228C47.3507 35.4748 46.8788 35.2794 46.3867 35.2794H27.832Z" fill="#9996B6"/>
<path id="path453465" fill-rule="evenodd" clip-rule="evenodd" d="M12.9883 20.4356C12.4962 20.4356 12.0243 20.6311 11.6763 20.979C11.3283 21.327 11.1328 21.799 11.1328 22.2911C11.1328 22.7832 11.3283 23.2551 11.6763 23.6031C12.0243 23.951 12.4962 24.1465 12.9883 24.1465H31.543C32.0351 24.1465 32.507 23.951 32.855 23.6031C33.2029 23.2551 33.3984 22.7832 33.3984 22.2911C33.3984 21.799 33.2029 21.327 32.855 20.979C32.507 20.6311 32.0351 20.4356 31.543 20.4356H12.9883Z" fill="#9996B6"/>
<path id="path453451" fill-rule="evenodd" clip-rule="evenodd" d="M12.9883 13.0137C12.4962 13.0137 12.0243 13.2092 11.6763 13.5572C11.3283 13.9051 11.1328 14.3771 11.1328 14.8692C11.1328 15.3613 11.3283 15.8332 11.6763 16.1812C12.0243 16.5292 12.4962 16.7247 12.9883 16.7247H31.543C32.0351 16.7247 32.507 16.5292 32.855 16.1812C33.2029 15.8332 33.3984 15.3613 33.3984 14.8692C33.3984 14.3771 33.2029 13.9051 32.855 13.5572C32.507 13.2092 32.0351 13.0137 31.543 13.0137H12.9883Z" fill="#9996B6"/>
<path id="path453435" fill-rule="evenodd" clip-rule="evenodd" d="M9.27734 5.59186C6.22508 5.59186 3.71094 8.106 3.71094 11.1583V37.1348C3.71094 38.3668 4.524 39.4375 5.52654 39.8528C6.52907 40.2681 7.86264 40.0861 8.73375 39.215C8.75485 39.1926 8.7754 39.1696 8.79536 39.1461L15.6664 31.5684H18.5547V40.8458C18.5547 43.898 21.0688 46.4122 24.1211 46.4122H43.7086L50.5796 53.9935C50.5996 54.0158 50.6202 54.0376 50.6413 54.0588C51.5123 54.9299 52.8459 55.1118 53.8485 54.6967C54.8511 54.2815 55.6641 53.2106 55.6641 51.9787V26.0021C55.6641 22.9499 53.1499 20.4357 50.0977 20.4357H40.8203V11.1584C40.8203 8.10611 38.3062 5.59197 35.2539 5.59197L9.27734 5.59186ZM9.27734 9.3028H35.2539C36.3006 9.3028 37.1094 10.1115 37.1094 11.1583V26.002C37.1094 27.0487 36.3006 27.8575 35.2539 27.8575H14.8438C14.585 27.8576 14.3292 27.9119 14.0926 28.0167C13.8561 28.1216 13.6441 28.2747 13.4703 28.4663L7.42188 35.1416V11.1583C7.42188 10.1115 8.23062 9.3028 9.27734 9.3028ZM40.8203 24.1465H50.0977C51.1444 24.1465 51.9531 24.9553 51.9531 26.002V49.9854L45.9047 43.3101C45.7309 43.1184 45.5189 42.9653 45.2824 42.8605C45.0458 42.7556 44.79 42.7014 44.5312 42.7012H24.1211C23.0744 42.7012 22.2656 41.8925 22.2656 40.8458V31.5684H35.2539H46.3867C46.8788 31.5684 47.3507 31.3729 47.6987 31.0249C48.0467 30.677 48.2422 30.2051 48.2422 29.713C48.2422 29.2209 48.0467 28.7489 47.6987 28.4009C47.3507 28.0529 46.8788 27.8575 46.3867 27.8575H40.4905C40.6994 27.2755 40.8203 26.6519 40.8203 26.002V24.1465Z" fill="#4B429F"/>
</g>
</g>
</svg>
