<svg width="55" height="49" viewBox="0 0 55 49" fill="none" xmlns="http://www.w3.org/2000/svg">
<g id="Iconsax/Linear/truckfast">
<path id="Vector" d="M27.0521 28.5833H29.3065C31.7862 28.5833 33.8152 26.7458 33.8152 24.5V4.08331H13.5261C10.1446 4.08331 7.1914 5.7779 5.65845 8.26873" stroke="#9996B6" stroke-width="3.5" stroke-linecap="round" stroke-linejoin="round"/>
<path id="Vector_2" d="M4.50879 34.7083C4.50879 38.0975 7.5296 40.8333 11.2718 40.8333H13.5261C13.5261 38.5875 15.5551 36.75 18.0348 36.75C20.5146 36.75 22.5435 38.5875 22.5435 40.8333H31.5609C31.5609 38.5875 33.5898 36.75 36.0696 36.75C38.5493 36.75 40.5782 38.5875 40.5782 40.8333H42.8326C46.5748 40.8333 49.5956 38.0975 49.5956 34.7083V28.5833H42.8326C41.5927 28.5833 40.5782 27.6646 40.5782 26.5416V20.4166C40.5782 19.2937 41.5927 18.375 42.8326 18.375H45.7407L41.8857 12.2704C41.4886 11.6457 40.9172 11.1264 40.2288 10.7645C39.5404 10.4026 38.7591 10.2108 37.9632 10.2083H33.8152V24.5C33.8152 26.7458 31.7863 28.5833 29.3065 28.5833H27.0522" stroke="#429F4B" stroke-width="2.5" stroke-linecap="round" stroke-linejoin="round"/>
<path id="Vector_3" d="M4.50879 16.3333H18.0348M4.50879 22.4583H13.5261M4.50879 28.5833H9.01747M18.0348 44.9166C19.2306 44.9166 20.3774 44.4864 21.2229 43.7207C22.0685 42.9549 22.5435 41.9163 22.5435 40.8333C22.5435 39.7503 22.0685 38.7117 21.2229 37.946C20.3774 37.1802 19.2306 36.75 18.0348 36.75C16.8391 36.75 15.6923 37.1802 14.8467 37.946C14.0012 38.7117 13.5261 39.7503 13.5261 40.8333C13.5261 41.9163 14.0012 42.9549 14.8467 43.7207C15.6923 44.4864 16.8391 44.9166 18.0348 44.9166ZM36.0696 44.9166C37.2653 44.9166 38.4121 44.4864 39.2577 43.7207C40.1032 42.9549 40.5782 41.9163 40.5782 40.8333C40.5782 39.7503 40.1032 38.7117 39.2577 37.946C38.4121 37.1802 37.2653 36.75 36.0696 36.75C34.8738 36.75 33.727 37.1802 32.8814 37.946C32.0359 38.7117 31.5609 39.7503 31.5609 40.8333C31.5609 41.9163 32.0359 42.9549 32.8814 43.7207C33.727 44.4864 34.8738 44.9166 36.0696 44.9166ZM49.5956 24.5V28.5833H42.8326C41.5927 28.5833 40.5782 27.6646 40.5782 26.5416V20.4166C40.5782 19.2937 41.5927 18.375 42.8326 18.375H45.7407L49.5956 24.5Z" stroke="#429F4B" stroke-width="3.5" stroke-linecap="round" stroke-linejoin="round"/>
</g>
</svg>
