<svg width="26" height="26" viewBox="0 0 26 26" fill="none" xmlns="http://www.w3.org/2000/svg">
<g id="Iconsax/Linear/location">
<path id="Vector" d="M13.0001 14.5491C13.444 14.5491 13.8835 14.4616 14.2936 14.2918C14.7037 14.1219 15.0763 13.8729 15.3901 13.5591C15.704 13.2452 15.953 12.8726 16.1228 12.4625C16.2927 12.0525 16.3801 11.6129 16.3801 11.1691C16.3801 10.7252 16.2927 10.2857 16.1228 9.87559C15.953 9.46551 15.704 9.0929 15.3901 8.77904C15.0763 8.46518 14.7037 8.21621 14.2936 8.04635C13.8835 7.87649 13.444 7.78906 13.0001 7.78906C12.1037 7.78906 11.244 8.14517 10.6101 8.77904C9.97622 9.41291 9.62012 10.2726 9.62012 11.1691C9.62012 12.0655 9.97622 12.9252 10.6101 13.5591C11.244 14.193 12.1037 14.5491 13.0001 14.5491Z" stroke="#F5F5F5" stroke-width="1.5"/>
<path id="Vector_2" d="M3.92168 9.19758C6.05584 -0.184083 19.955 -0.173249 22.0783 9.20842C23.3242 14.7118 19.9008 19.3701 16.9 22.2518C15.8514 23.2631 14.4514 23.8282 12.9946 23.8282C11.5378 23.8282 10.1378 23.2631 9.08918 22.2518C6.09918 19.3701 2.67584 14.7009 3.92168 9.19758Z" stroke="#F5F5F5" stroke-width="1.5"/>
</g>
</svg>
